<?xml version="1.0" standalone="no"?>
<!DOCTYPE svg PUBLIC "-//W3C//DTD SVG 20010904//EN"
 "http://www.w3.org/TR/2001/REC-SVG-20010904/DTD/svg10.dtd">
<svg version="1.0" xmlns="http://www.w3.org/2000/svg"
 width="1182.000000pt" height="1280.000000pt" viewBox="0 0 1182.000000 1280.000000"
 preserveAspectRatio="xMidYMid meet">
<metadata>
Created by potrace 1.15, written by Peter Selinger 2001-2017
</metadata>
<g transform="translate(0.000000,1280.000000) scale(0.100000,-0.100000)"
fill="#000000" stroke="none">
<path d="M7705 12697 c-122 -111 -272 -226 -545 -417 -488 -341 -694 -532
-823 -762 -87 -155 -128 -357 -108 -534 5 -54 8 -100 5 -103 -3 -3 -20 -4 -38
-3 -23 2 -42 -4 -63 -22 -28 -24 -51 -87 -77 -217 -6 -29 -60 -100 -197 -261
-68 -80 -142 -185 -248 -356 -83 -134 -151 -247 -151 -251 0 -4 -13 -22 -30
-41 -16 -19 -29 -41 -30 -49 0 -8 -21 -52 -46 -98 -36 -66 -43 -87 -34 -98 9
-11 -4 -36 -61 -122 -39 -59 -73 -109 -74 -111 -1 -1 -42 4 -91 12 -285 47
-877 47 -1364 0 -839 -81 -1689 -381 -2289 -808 -642 -457 -1023 -977 -1146
-1566 -36 -168 -45 -465 -21 -645 29 -220 78 -401 173 -645 81 -207 168 -347
342 -545 225 -257 576 -483 986 -635 94 -34 304 -100 369 -114 21 -5 27 -11
23 -25 -2 -10 -94 -169 -204 -352 -110 -184 -244 -417 -298 -519 -54 -102
-257 -475 -450 -830 -491 -900 -549 -1008 -803 -1505 -241 -472 -292 -581
-341 -718 -33 -94 -71 -264 -71 -317 0 -42 0 -42 153 133 418 479 758 947
1457 2007 161 245 382 576 490 735 108 160 327 497 485 750 159 253 295 468
304 478 12 15 25 18 56 13 22 -3 193 -26 380 -51 396 -53 541 -76 720 -111
162 -32 325 -70 332 -78 3 -3 -2 -23 -11 -45 -8 -22 -24 -107 -35 -188 -19
-140 -39 -221 -61 -249 -6 -6 -31 -17 -57 -23 -218 -55 -525 -313 -642 -541
-21 -41 -44 -92 -51 -113 -11 -37 -11 -38 40 -100 137 -166 302 -311 435 -383
39 -21 75 -43 80 -50 14 -17 696 -332 835 -387 603 -235 1195 -380 1845 -451
447 -49 1050 -49 1555 0 1089 105 1927 433 2585 1013 232 205 382 373 525 588
214 322 335 645 386 1033 20 152 14 499 -11 655 -51 319 -170 682 -345 1052
-156 328 -403 668 -735 1011 -538 557 -1164 992 -1990 1384 -520 247 -967 419
-1970 758 -192 65 -395 134 -450 154 -95 33 -285 76 -343 76 -55 0 -58 12 -17
86 20 38 50 94 65 125 35 69 403 731 477 857 30 50 58 92 64 92 5 0 9 9 9 20
0 12 29 74 64 138 35 64 70 134 77 156 12 33 23 43 84 73 251 126 445 321 575
583 86 171 135 349 250 895 51 242 96 404 154 548 24 59 42 107 42 106 -1 0
-46 -42 -101 -92z m-4275 -6223 c9 -9 -385 -668 -440 -736 l-25 -31 -41 59
c-93 133 -128 235 -122 357 8 175 112 302 291 352 58 17 320 16 337 -1z m855
-569 c74 -111 98 -184 94 -277 -7 -133 -80 -243 -202 -303 -137 -68 -314 -82
-495 -40 -67 15 -72 18 -59 33 8 10 42 63 76 120 34 57 141 229 238 383 l176
280 59 -58 c33 -32 83 -94 113 -138z"/>
</g>
</svg>
